<svg xmlns="http://www.w3.org/2000/svg" width="260" height="260" viewBox="0 0 260 260"><defs><linearGradient id="g" x1="0" y1="0" x2="1" y2="1"><stop stop-color="#f8c845"/><stop offset="1" stop-color="#704015"/></linearGradient></defs><circle cx="130" cy="130" r="118" fill="url(#g)"/><circle cx="130" cy="130" r="96" fill="#fff8e6"/><path d="M130 49c26 24 59 35 59 35v51c0 42-26 67-59 82-33-15-59-40-59-82V84s33-11 59-35z" fill="#8a5018"/><path d="M93 139c20-31 55-31 74 0-12 21-24 32-37 38-13-6-25-17-37-38z" fill="#f8c845"/><circle cx="130" cy="127" r="20" fill="#fff8e6"/><text x="130" y="236" font-size="18" font-family="Georgia,serif" text-anchor="middle" fill="#704015" font-weight="700">VATS WELFARE</text></svg>